{
  "accessors": [
    {
      "bufferView": 3,
      "componentType": 5126,
      "count": 4545,
      "max": [
        0.0990150049328804,
        1.821552038192749,
        0.14567628502845764
      ],
      "min": [
        -0.1005769893527031,
        1.5003620386123657,
        -0.0944097489118576
      ],
      "type": "VEC3"
    },
    {
      "bufferView": 3,
      "byteOffset": 54540,
      "componentType": 5126,
      "count": 4545,
      "max": [
        0.9998661279678345,
        0.9999868273735046,
        0.9998740553855896
      ],
      "min": [
        -0.9993127584457397,
        -0.9983267188072205,
        -0.9998417496681213
      ],
      "type": "VEC3"
    },
    {
      "bufferView": 2,
      "componentType": 5126,
      "count": 4545,
      "max": [
        0.9764909744262695,
        0.8521000146865845
      ],
      "min": [
        0.02360600046813488,
        0.06445299834012985
      ],
      "type": "VEC2"
    },
    {
      "bufferView": 1,
      "componentType": 5125,
      "count": 26586,
      "type": "SCALAR"
    },
    {
      "bufferView": 3,
      "byteOffset": 109080,
      "componentType": 5126,
      "count": 12513,
      "max": [
        0.9338110089302063,
        1.8645119667053223,
        0.3216831386089325
      ],
      "min": [
        -0.9338539838790894,
        -0.0002960166602861136,
        -0.16868175566196442
      ],
      "type": "VEC3"
    },
    {
      "bufferView": 3,
      "byteOffset": 259236,
      "componentType": 5126,
      "count": 12513,
      "max": [
        0.9999747276306152,
        0.9999404549598694,
        0.9999732971191406
      ],
      "min": [
        -0.9999744892120361,
        -0.9999902248382568,
        -0.9999789595603943
      ],
      "type": "VEC3"
    },
    {
      "bufferView": 4,
      "componentType": 5126,
      "count": 12513,
      "max": [
        0.9999995827674866,
        0.9999480247497559,
        0.9999073147773743,
        1.0
      ],
      "min": [
        -1.0,
        -0.9998072385787964,
        -0.9999269843101501,
        -1.0
      ],
      "type": "VEC4"
    },
    {
      "bufferView": 2,
      "byteOffset": 36360,
      "componentType": 5126,
      "count": 12513,
      "max": [
        0.9986799955368042,
        0.9989280104637146
      ],
      "min": [
        0.0010499999625608325,
        0.25176599621772766
      ],
      "type": "VEC2"
    },
    {
      "bufferView": 1,
      "byteOffset": 106344,
      "componentType": 5125,
      "count": 58758,
      "type": "SCALAR"
    },
    {
      "bufferView": 5,
      "componentType": 5126,
      "count": 29,
      "max": [
        1.0,
        0.9992365837097168,
        0.26892605423927307,
        0.0,
        0.09536047279834747,
        1.0,
        0.9979832768440247,
        0.0,
        0.9956651329994202,
        0.9973505735397339,
        1.0,
        0.0,
        0.09584742784500122,
        0.8761225342750549,
        1.5031334161758423,
        1.0
      ],
      "min": [
        -0.9999996423721313,
        -0.9996673464775085,
        -0.2709861993789673,
        0.0,
        -0.0884711965918541,
        -0.99915611743927,
        -0.9963751435279846,
        0.0,
        -0.996225118637085,
        -0.08551272004842758,
        -0.015848848968744278,
        0.0,
        -0.09574995934963226,
        -1.605961561203003,
        -0.07822105288505554,
        1.0
      ],
      "type": "MAT4"
    },
    {
      "bufferView": 0,
      "componentType": 5123,
      "count": 4545,
      "type": "VEC4"
    },
    {
      "bufferView": 4,
      "byteOffset": 200208,
      "componentType": 5126,
      "count": 4545,
      "max": [
        1.0,
        0.3641097843647003,
        0.3020837604999542,
        0.05212891846895218
      ],
      "min": [
        0.3524879217147827,
        0.0,
        0.0,
        0.0
      ],
      "type": "VEC4"
    },
    {
      "bufferView": 0,
      "byteOffset": 36360,
      "componentType": 5123,
      "count": 12513,
      "type": "VEC4"
    },
    {
      "bufferView": 4,
      "byteOffset": 272928,
      "componentType": 5126,
      "count": 12513,
      "max": [
        1.0,
        0.4998670816421509,
        0.3297296464443207,
        0.16447335481643677
      ],
      "min": [
        0.3324751853942871,
        0.0,
        0.0,
        0.0
      ],
      "type": "VEC4"
    }
  ],
  "asset": {
    "extras": {
      "author": "ustoopia (https://sketchfab.com/ustoopia)",
      "license": "CC-BY-4.0 (http://creativecommons.org/licenses/by/4.0/)",
      "source": "https://sketchfab.com/3d-models/police-man-from-the-usa-t-pose-rig-mixamo-c6d330c59f6c41eea41c71e00e39334b",
      "title": "Police Man from the U.S.A. (T-pose rig mixamo )"
    },
    "generator": "Sketchfab-14.10.0",
    "version": "2.0"
  },
  "bufferViews": [
    {
      "buffer": 0,
      "byteLength": 136464,
      "byteStride": 8,
      "name": "shortBufferViews",
      "target": 34962
    },
    {
      "buffer": 0,
      "byteLength": 341376,
      "byteOffset": 136464,
      "name": "floatBufferViews",
      "target": 34963
    },
    {
      "buffer": 0,
      "byteLength": 136464,
      "byteOffset": 477840,
      "byteStride": 8,
      "name": "floatBufferViews",
      "target": 34962
    },
    {
      "buffer": 0,
      "byteLength": 409392,
      "byteOffset": 614304,
      "byteStride": 12,
      "name": "floatBufferViews",
      "target": 34962
    },
    {
      "buffer": 0,
      "byteLength": 473136,
      "byteOffset": 1023696,
      "byteStride": 16,
      "name": "floatBufferViews",
      "target": 34962
    },
    {
      "buffer": 0,
      "byteLength": 1856,
      "byteOffset": 1496832,
      "name": "floatBufferViews"
    }
  ],
  "buffers": [
    {
      "byteLength": 1498688,
      "uri": "scene.bin"
    }
  ],
  "images": [
    {
      "uri": "textures/facebuilder_baseColor.png"
    },
    {
      "uri": "textures/PackedMaterial0_baseColor.png"
    },
    {
      "uri": "textures/PackedMaterial0_normal.png"
    }
  ],
  "materials": [
    {
      "doubleSided": true,
      "name": "facebuilder",
      "pbrMetallicRoughness": {
        "baseColorTexture": {
          "index": 0
        },
        "metallicFactor": 0.0,
        "roughnessFactor": 0.5
      }
    },
    {
      "doubleSided": true,
      "name": "PackedMaterial0",
      "normalTexture": {
        "index": 2,
        "scale": 0.0
      },
      "pbrMetallicRoughness": {
        "baseColorTexture": {
          "index": 1
        },
        "metallicFactor": 0.0
      }
    }
  ],
  "meshes": [
    {
      "name": "Object_0",
      "primitives": [
        {
          "attributes": {
            "JOINTS_0": 10,
            "NORMAL": 1,
            "POSITION": 0,
            "TEXCOORD_0": 2,
            "WEIGHTS_0": 11
          },
          "indices": 3,
          "material": 0,
          "mode": 4
        }
      ]
    },
    {
      "name": "Object_1",
      "primitives": [
        {
          "attributes": {
            "JOINTS_0": 12,
            "NORMAL": 5,
            "POSITION": 4,
            "TANGENT": 6,
            "TEXCOORD_0": 7,
            "TEXCOORD_1": 7,
            "WEIGHTS_0": 13
          },
          "indices": 8,
          "material": 1,
          "mode": 4
        }
      ]
    }
  ],
  "nodes": [
    {
      "children": [
        1
      ],
      "matrix": [
        1.0,
        0.0,
        0.0,
        0.0,
        0.0,
        2.220446049250313e-16,
        -1.0,
        0.0,
        0.0,
        1.0,
        2.220446049250313e-16,
        0.0,
        0.0,
        0.0,
        0.0,
        1.0
      ],
      "name": "Sketchfab_model"
    },
    {
      "children": [
        2
      ],
      "name": "root"
    },
    {
      "children": [
        3
      ],
      "matrix": [
        1.0,
        0.0,
        0.0,
        0.0,
        0.0,
        2.220446049250313e-16,
        1.0,
        0.0,
        0.0,
        -1.0,
        2.220446049250313e-16,
        0.0,
        0.0,
        0.0,
        0.0,
        1.0
      ],
      "name": "GLTF_SceneRootNode"
    },
    {
      "children": [
        4
      ],
      "matrix": [
        1.0,
        0.0,
        0.0,
        0.0,
        0.0,
        -1.685873969314855e-07,
        0.9999999999999858,
        0.0,
        0.0,
        -0.9999999999999858,
        -1.685873969314855e-07,
        0.0,
        0.0,
        0.0,
        0.0,
        1.0
      ],
      "name": "Armature_29"
    },
    {
      "children": [
        5,
        7,
        8,
        6
      ],
      "name": "GLTF_created_0"
    },
    {
      "children": [
        9
      ],
      "name": "GLTF_created_0_rootJoint"
    },
    {
      "name": "dikkewout.001_28"
    },
    {
      "mesh": 0,
      "name": "Object_7",
      "skin": 0
    },
    {
      "mesh": 1,
      "name": "Object_8",
      "skin": 0
    },
    {
      "children": [
        10,
        29,
        33
      ],
      "name": "mixamorig:Hips_27",
      "rotation": [
        -0.7071077823638916,
        6.099451638874598e-05,
        6.510453385999426e-05,
        0.7071057558059692
      ],
      "translation": [
        -1.2978657650819514e-05,
        0.0003513265401124954,
        -0.9439262747764587
      ]
    },
    {
      "children": [
        11
      ],
      "name": "mixamorig:Spine_18",
      "rotation": [
        -0.04279410466551781,
        6.719440989400027e-06,
        -8.895943756215274e-05,
        0.9990839958190918
      ],
      "scale": [
        0.9999998807907104,
        1.0,
        0.9999998807907104
      ],
      "translation": [
        0.0,
        0.11873745918273926,
        -0.010190898552536964
      ]
    },
    {
      "children": [
        12
      ],
      "name": "mixamorig:Spine1_17",
      "rotation": [
        -1.6763806343078613e-08,
        3.459815441954339e-13,
        -6.399722765615401e-12,
        1.0
      ],
      "scale": [
        1.0,
        0.9999999403953552,
        0.9999999403953552
      ],
      "translation": [
        -3.653399887292434e-21,
        0.1390366107225418,
        -1.862645149230957e-09
      ]
    },
    {
      "children": [
        13,
        15,
        22
      ],
      "name": "mixamorig:Spine2_16",
      "rotation": [
        -8.568167686462402e-08,
        -2.451760040649009e-13,
        5.723745262475877e-12,
        1.0
      ],
      "translation": [
        7.989300952575273e-13,
        0.15889842808246613,
        -7.450580596923828e-09
      ]
    },
    {
      "children": [
        14
      ],
      "name": "mixamorig:Neck_1",
      "rotation": [
        0.04279565066099167,
        -3.286289290823849e-14,
        -2.2898957036110446e-13,
        0.999083936214447
      ],
      "scale": [
        1.0,
        0.9999998807907104,
        0.9999999403953552
      ],
      "translation": [
        -1.2027867851011065e-18,
        0.17876113951206207,
        1.8640097465549843e-08
      ]
    },
    {
      "name": "mixamorig:Head_0",
      "rotation": [
        7.148955205593666e-09,
        0.0,
        -5.48016267727816e-20,
        1.0
      ],
      "translation": [
        -1.8189894035458565e-12,
        0.06919145584106445,
        0.026622170582413673
      ]
    },
    {
      "children": [
        16
      ],
      "name": "mixamorig:LeftShoulder_8",
      "rotation": [
        0.5575810074806213,
        0.4328421354293823,
        -0.5643024444580078,
        0.4281518757343292
      ],
      "scale": [
        1.0000001192092896,
        1.000000238418579,
        1.0
      ],
      "translation": [
        0.07336429506540298,
        0.15726691484451294,
        -0.0009887689957395196
      ]
    },
    {
      "children": [
        17
      ],
      "name": "mixamorig:LeftArm_7",
      "rotation": [
        -0.13046513497829437,
        0.005429749842733145,
        0.005124811083078384,
        0.9914247989654541
      ],
      "scale": [
        0.9999998211860657,
        0.9999999403953552,
        0.9999995827674866
      ],
      "translation": [
        -2.2811603272998582e-08,
        0.1535242646932602,
        8.22664532051931e-08
      ]
    },
    {
      "children": [
        18
      ],
      "name": "mixamorig:LeftForeArm_6",
      "rotation": [
        2.2796952237058576e-07,
        -0.003803933272138238,
        -3.3062192983379646e-08,
        0.9999927878379822
      ],
      "scale": [
        1.0,
        1.0,
        0.9999999403953552
      ],
      "translation": [
        4.679908460758497e-09,
        0.2241797149181366,
        9.602072026382302e-09
      ]
    },
    {
      "children": [
        19
      ],
      "name": "mixamorig:LeftHand_5",
      "rotation": [
        4.4692671963275643e-07,
        0.00011250172974541783,
        8.661685768629468e-08,
        1.0
      ],
      "scale": [
        0.9999999403953552,
        1.000000238418579,
        1.0
      ],
      "translation": [
        7.896053588751784e-09,
        0.26985126733779907,
        -2.535582268592407e-07
      ]
    },
    {
      "children": [
        20
      ],
      "name": "mixamorig:LeftHandIndex1_4",
      "rotation": [
        -7.525672117481008e-06,
        -0.00033928928314708173,
        7.247119810926961e-07,
        0.9999999403953552
      ],
      "scale": [
        1.0,
        0.9999998211860657,
        1.0000001192092896
      ],
      "translation": [
        5.619784637644898e-09,
        0.16088953614234924,
        6.216578185558319e-08
      ]
    },
    {
      "children": [
        21
      ],
      "name": "mixamorig:LeftHandIndex2_3",
      "rotation": [
        -0.11296895146369934,
        -7.452043178091117e-07,
        0.07928033918142319,
        0.9904305338859558
      ],
      "translation": [
        1.1175870895385742e-08,
        0.016075609251856804,
        3.119930624961853e-08
      ]
    },
    {
      "name": "mixamorig:LeftHandIndex3_2",
      "rotation": [
        0.07449252903461456,
        -0.0004187714075669646,
        -0.05047411844134331,
        0.9959433078765869
      ],
      "scale": [
        1.0000001192092896,
        0.9999998807907104,
        1.0000001192092896
      ],
      "translation": [
        0.004030093550682068,
        0.02451004460453987,
        0.005734606646001339
      ]
    },
    {
      "children": [
        23
      ],
      "name": "mixamorig:RightShoulder_15",
      "rotation": [
        0.5504979491233826,
        -0.4382791221141815,
        0.5702502131462097,
        0.4238846004009247
      ],
      "scale": [
        0.9999999403953552,
        1.0,
        1.0
      ],
      "translation": [
        -0.07336435467004776,
        0.15741275250911713,
        -0.00268820533528924
      ]
    },
    {
      "children": [
        24
      ],
      "name": "mixamorig:RightArm_14",
      "rotation": [
        -0.12926357984542847,
        -0.0011498637031763792,
        -0.017272796481847763,
        0.9914591908454895
      ],
      "scale": [
        0.9999999403953552,
        0.9999999403953552,
        1.0
      ],
      "translation": [
        1.5832428701401113e-08,
        0.15352429449558258,
        3.399327042075129e-08
      ]
    },
    {
      "children": [
        25
      ],
      "name": "mixamorig:RightForeArm_13",
      "rotation": [
        -1.111231640038568e-07,
        0.002325816312804818,
        -5.618510101612628e-08,
        0.9999973177909851
      ],
      "scale": [
        0.9999998807907104,
        1.0,
        1.0
      ],
      "translation": [
        1.5589840529628418e-10,
        0.22386807203292847,
        5.588080398410966e-08
      ]
    },
    {
      "children": [
        26
      ],
      "name": "mixamorig:RightHand_12",
      "rotation": [
        -9.56784560912638e-07,
        -0.00088615866843611,
        2.702983863400732e-07,
        0.9999995827674866
      ],
      "scale": [
        0.9999997615814209,
        0.9999999403953552,
        0.9999998211860657
      ],
      "translation": [
        -1.3030939882696657e-08,
        0.2697346806526184,
        -1.500011421740055e-07
      ]
    },
    {
      "children": [
        27
      ],
      "name": "mixamorig:RightHandIndex1_11",
      "rotation": [
        -3.694171255119727e-06,
        2.00224676518701e-05,
        1.1333748943798128e-06,
        1.0
      ],
      "scale": [
        0.9999997615814209,
        0.9999998211860657,
        0.9999998807907104
      ],
      "translation": [
        -7.449037831008809e-09,
        0.1651027351617813,
        -1.0943001171881406e-08
      ]
    },
    {
      "children": [
        28
      ],
      "name": "mixamorig:RightHandIndex2_10",
      "rotation": [
        -0.08702526241540909,
        -1.443303176529298e-06,
        -0.04882637411355972,
        0.9950088858604431
      ],
      "scale": [
        1.0,
        1.0000001192092896,
        1.0000001192092896
      ],
      "translation": [
        2.048899716555752e-08,
        0.014919895678758621,
        -2.188737369124283e-08
      ]
    },
    {
      "name": "mixamorig:RightHandIndex3_9",
      "rotation": [
        0.01750398427248001,
        -0.003190027317032218,
        0.027880173176527023,
        0.9994528889656067
      ],
      "scale": [
        1.0,
        0.9999998807907104,
        1.000000238418579
      ],
      "translation": [
        -0.002322804182767868,
        0.023199066519737244,
        0.004132360219955444
      ]
    },
    {
      "children": [
        30
      ],
      "name": "mixamorig:LeftUpLeg_22",
      "rotation": [
        -4.971622547600418e-05,
        0.006307362578809261,
        -0.9999800324440002,
        0.0003940075112041086
      ],
      "scale": [
        0.9999999403953552,
        0.9999998211860657,
        1.000002145767212
      ],
      "translation": [
        0.09586528688669205,
        -0.0661008358001709,
        0.0006495651323348284
      ]
    },
    {
      "children": [
        31
      ],
      "name": "mixamorig:LeftLeg_21",
      "rotation": [
        -0.021543892100453377,
        2.0626023342629196e-06,
        -0.0009568296372890472,
        0.9997674822807312
      ],
      "scale": [
        1.0,
        1.0000001192092896,
        1.000000238418579
      ],
      "translation": [
        2.2801165400210266e-09,
        0.386091947555542,
        -1.686450423754593e-09
      ]
    },
    {
      "children": [
        32
      ],
      "name": "mixamorig:LeftFoot_20",
      "rotation": [
        0.4974432587623596,
        -0.013789281249046326,
        0.00708287488669157,
        0.8673580288887024
      ],
      "scale": [
        0.9999999403953552,
        1.0,
        0.9999998211860657
      ],
      "translation": [
        -8.006962204376578e-09,
        0.3762252926826477,
        3.966492911899877e-09
      ]
    },
    {
      "name": "mixamorig:LeftToeBase_19",
      "rotation": [
        0.29421621561050415,
        -0.035882800817489624,
        0.01105469185858965,
        0.9550010561943054
      ],
      "scale": [
        1.0,
        1.0,
        1.0000001192092896
      ],
      "translation": [
        -2.0758135210741102e-09,
        0.19312335550785065,
        1.0806661343565338e-08
      ]
    },
    {
      "children": [
        34
      ],
      "name": "mixamorig:RightUpLeg_26",
      "rotation": [
        -2.9871695005567744e-05,
        -0.00933615118265152,
        0.9999563694000244,
        0.0005703938659280539
      ],
      "scale": [
        1.0,
        0.9999998211860657,
        1.0000008344650269
      ],
      "translation": [
        -0.09586527198553085,
        -0.0661008358001709,
        -0.0025081930216401815
      ]
    },
    {
      "children": [
        35
      ],
      "name": "mixamorig:RightLeg_25",
      "rotation": [
        -0.01128160860389471,
        6.857861762910034e-07,
        0.0009588546818122268,
        0.9999359250068665
      ],
      "scale": [
        1.0,
        0.9999999403953552,
        1.0
      ],
      "translation": [
        9.355579422276605e-09,
        0.3858504593372345,
        1.085580847437484e-09
      ]
    },
    {
      "children": [
        36
      ],
      "name": "mixamorig:RightFoot_24",
      "rotation": [
        0.49384087324142456,
        0.013624290004372597,
        -0.00709634181112051,
        0.8694165945053101
      ],
      "scale": [
        1.0,
        0.9999999403953552,
        0.9999999403953552
      ],
      "translation": [
        5.967725869027163e-09,
        0.37611910700798035,
        8.049329203174693e-09
      ]
    },
    {
      "name": "mixamorig:RightToeBase_23",
      "rotation": [
        0.2911476790904999,
        0.035288043320178986,
        -0.010747195221483707,
        0.9559667110443115
      ],
      "scale": [
        1.0000001192092896,
        1.0,
        0.9999998807907104
      ],
      "translation": [
        1.6116457501880177e-08,
        0.19494223594665527,
        -2.5682138637961316e-09
      ]
    }
  ],
  "samplers": [
    {
      "magFilter": 9729,
      "minFilter": 9987,
      "wrapS": 10497,
      "wrapT": 10497
    }
  ],
  "scene": 0,
  "scenes": [
    {
      "name": "Sketchfab_Scene",
      "nodes": [
        0
      ]
    }
  ],
  "skins": [
    {
      "inverseBindMatrices": 9,
      "joints": [
        5,
        9,
        10,
        11,
        12,
        13,
        14,
        15,
        16,
        17,
        18,
        19,
        20,
        21,
        22,
        23,
        24,
        25,
        26,
        27,
        28,
        29,
        30,
        31,
        32,
        33,
        34,
        35,
        36
      ],
      "skeleton": 5
    }
  ],
  "textures": [
    {
      "sampler": 0,
      "source": 0
    },
    {
      "sampler": 0,
      "source": 1
    },
    {
      "sampler": 0,
      "source": 2
    }
  ]
}
